# Blender 3.5.0
# www.blender.org
mtllib crate.mtl
o Cube
v 1.000000 1.000000 -1.000000
v 1.000000 -1.000000 -1.000000
v 1.000000 1.000000 1.000000
v 1.000000 -1.000000 1.000000
v -1.000000 1.000000 -1.000000
v -1.000000 -1.000000 -1.000000
v -1.000000 1.000000 1.000000
v -1.000000 -1.000000 1.000000
v 0.743119 1.000000 -0.743119
v -0.743119 1.000000 -0.743119
v -0.743119 1.000000 0.743119
v 0.743119 1.000000 0.743119
v 0.743119 -0.743119 1.000000
v 0.743119 0.743119 1.000000
v -0.743119 0.743119 1.000000
v -0.743119 -0.743119 1.000000
v -1.000000 -0.743119 0.743119
v -1.000000 0.743119 0.743119
v -1.000000 0.743119 -0.743119
v -1.000000 -0.743119 -0.743119
v -0.743119 -1.000000 -0.743119
v 0.743119 -1.000000 -0.743119
v 0.743119 -1.000000 0.743119
v -0.743119 -1.000000 0.743119
v 1.000000 -0.743119 -0.743119
v 1.000000 0.743119 -0.743119
v 1.000000 0.743119 0.743119
v 1.000000 -0.743119 0.743119
v -0.743119 -0.743119 -1.000000
v -0.743119 0.743119 -1.000000
v 0.743119 0.743119 -1.000000
v 0.743119 -0.743119 -1.000000
v 0.743119 0.902901 -0.743119
v -0.743119 0.902901 -0.743119
v -0.743119 0.902901 0.743119
v 0.743119 0.902901 0.743119
v 0.743119 -0.743119 0.902901
v 0.743119 0.743119 0.902901
v -0.743119 0.743119 0.902901
v -0.743119 -0.743119 0.902901
v -0.902901 -0.743119 0.743119
v -0.902901 0.743119 0.743119
v -0.902901 0.743119 -0.743119
v -0.902901 -0.743119 -0.743119
v -0.743119 -0.902901 -0.743119
v 0.743119 -0.902901 -0.743119
v 0.743119 -0.902901 0.743119
v -0.743119 -0.902901 0.743119
v 0.902901 -0.743119 -0.743119
v 0.902901 0.743119 -0.743119
v 0.902901 0.743119 0.743119
v 0.902901 -0.743119 0.743119
v -0.743119 -0.743119 -0.902901
v -0.743119 0.743119 -0.902901
v 0.743119 0.743119 -0.902901
v 0.743119 -0.743119 -0.902901
v 0.797164 0.917591 -0.890689
v -0.890689 0.917591 0.797164
v -0.797164 0.917591 0.890689
v 0.890689 0.917591 -0.797164
v 0.890689 0.797164 0.917591
v 0.797164 0.890689 0.917591
v -0.890689 -0.797164 0.917591
v -0.797164 -0.890689 0.917591
v -0.917591 0.797164 0.890689
v -0.917591 0.890689 0.797164
v -0.917591 -0.797164 -0.890689
v -0.917591 -0.890689 -0.797164
v -0.797164 -0.917591 -0.890689
v 0.890689 -0.917591 0.797164
v 0.797164 -0.917591 0.890689
v -0.890689 -0.917591 -0.797164
v 0.917591 0.797164 -0.890689
v 0.917591 0.890689 -0.797164
v 0.917591 -0.797164 0.890689
v 0.917591 -0.890689 0.797164
v -0.890689 0.797164 -0.917591
v -0.797164 0.890689 -0.917591
v 0.890689 -0.797164 -0.917591
v 0.797164 -0.890689 -0.917591
v 0.797164 0.946157 -0.890689
v -0.890689 0.946157 0.797164
v -0.797164 0.946157 0.890689
v 0.890689 0.946157 -0.797164
v 0.890689 0.797164 0.946157
v 0.797164 0.890689 0.946157
v -0.890689 -0.797164 0.946157
v -0.797164 -0.890689 0.946157
v -0.946157 0.797164 0.890689
v -0.946157 0.890689 0.797164
v -0.946157 -0.797164 -0.890689
v -0.946157 -0.890689 -0.797164
v -0.797164 -0.946157 -0.890689
v 0.890689 -0.946157 0.797164
v 0.797164 -0.946157 0.890689
v -0.890689 -0.946157 -0.797164
v 0.946157 0.797164 -0.890689
v 0.946157 0.890689 -0.797164
v 0.946157 -0.797164 0.890689
v 0.946157 -0.890689 0.797164
v -0.890689 0.797164 -0.946157
v -0.797164 0.890689 -0.946157
v 0.890689 -0.797164 -0.946157
v 0.797164 -0.890689 -0.946157
vn -0.0000 -0.0000 1.0000
vn -0.0000 1.0000 -0.0000
vn -1.0000 -0.0000 -0.0000
vn 1.0000 -0.0000 -0.0000
vn -0.0000 -1.0000 -0.0000
vn -0.0000 -0.0000 -1.0000
vn 0.7071 -0.7071 -0.0000
vn -0.7071 0.7071 -0.0000
vn -0.7071 -0.0000 -0.7071
vn -0.7071 -0.7071 -0.0000
vn 0.7071 -0.0000 0.7071
vn 0.7071 0.7071 -0.0000
vn -0.7071 -0.0000 0.7071
vn -0.0000 0.7071 0.7071
vn 0.7071 -0.0000 -0.7071
vn -0.0000 0.7071 -0.7071
vn -0.0000 -0.7071 0.7071
vn -0.0000 -0.7071 -0.7071
vt 0.625000 0.500000
vt 0.375000 0.500000
vt 0.625000 0.750000
vt 0.375000 0.750000
vt 0.875000 0.500000
vt 0.625000 0.250000
vt 0.125000 0.500000
vt 0.375000 0.250000
vt 0.875000 0.750000
vt 0.625000 1.000000
vt 0.625000 0.000000
vt 0.375000 1.000000
vt 0.375000 0.000000
vt 0.125000 0.750000
vt 0.657110 0.532110
vt 0.842890 0.532110
vt 0.842890 0.717890
vt 0.657110 0.717890
vt 0.407110 0.782110
vt 0.592890 0.782110
vt 0.592890 0.967890
vt 0.407110 0.967890
vt 0.407110 0.032110
vt 0.592890 0.032110
vt 0.592890 0.217890
vt 0.407110 0.217890
vt 0.157110 0.532110
vt 0.342890 0.532110
vt 0.342890 0.717890
vt 0.157110 0.717890
vt 0.407110 0.532110
vt 0.592890 0.532110
vt 0.592890 0.717890
vt 0.407110 0.717890
vt 0.407110 0.282110
vt 0.592890 0.282110
vt 0.592890 0.467890
vt 0.407110 0.467890
vt 0.657110 0.532110
vt 0.842890 0.532110
vt 0.842890 0.717890
vt 0.657110 0.717890
vt 0.407110 0.782110
vt 0.592890 0.782110
vt 0.592890 0.967890
vt 0.407110 0.967890
vt 0.407110 0.032110
vt 0.592890 0.032110
vt 0.592890 0.217890
vt 0.407110 0.217890
vt 0.157110 0.532110
vt 0.342890 0.532110
vt 0.342890 0.717890
vt 0.157110 0.717890
vt 0.407110 0.532110
vt 0.592890 0.532110
vt 0.592890 0.717890
vt 0.407110 0.717890
vt 0.407110 0.282110
vt 0.592890 0.282110
vt 0.592890 0.467890
vt 0.407110 0.467890
vt 0.657110 0.532110
vt 0.842890 0.532110
vt 0.842890 0.717890
vt 0.657110 0.717890
vt 0.407110 0.782110
vt 0.592890 0.782110
vt 0.592890 0.967890
vt 0.407110 0.967890
vt 0.407110 0.032110
vt 0.592890 0.032110
vt 0.592890 0.217890
vt 0.407110 0.217890
vt 0.157110 0.532110
vt 0.342890 0.532110
vt 0.342890 0.717890
vt 0.157110 0.717890
vt 0.407110 0.532110
vt 0.592890 0.532110
vt 0.592890 0.717890
vt 0.407110 0.717890
vt 0.407110 0.282110
vt 0.592890 0.282110
vt 0.592890 0.467890
vt 0.407110 0.467890
vt 0.657110 0.532110
vt 0.842890 0.532110
vt 0.842890 0.717890
vt 0.657110 0.717890
vt 0.407110 0.782110
vt 0.592890 0.782110
vt 0.592890 0.967890
vt 0.407110 0.967890
vt 0.407110 0.032110
vt 0.592890 0.032110
vt 0.592890 0.217890
vt 0.407110 0.217890
vt 0.157110 0.532110
vt 0.342890 0.532110
vt 0.342890 0.717890
vt 0.157110 0.717890
vt 0.407110 0.532110
vt 0.592890 0.532110
vt 0.592890 0.717890
vt 0.407110 0.717890
vt 0.407110 0.282110
vt 0.592890 0.282110
vt 0.592890 0.467890
vt 0.407110 0.467890
s 0
usemtl Material
f 20/26/1 43/49/1 19/25/1
f 29/35/2 56/62/2 32/38/2
f 23/29/3 46/52/3 22/28/3
f 16/22/4 39/45/4 15/21/4
f 25/31/2 52/58/2 28/34/2
f 19/25/5 42/48/5 18/24/5
f 5/5/2 9/15/2 1/1/2
f 7/9/2 10/16/2 5/5/2
f 3/3/2 11/17/2 7/9/2
f 1/1/2 12/18/2 3/3/2
f 3/3/1 13/19/1 4/4/1
f 7/10/1 14/20/1 3/3/1
f 8/12/1 15/21/1 7/10/1
f 4/4/1 16/22/1 8/12/1
f 7/11/3 17/23/3 8/13/3
f 5/6/3 18/24/3 7/11/3
f 6/8/3 19/25/3 5/6/3
f 8/13/3 20/26/3 6/8/3
f 2/2/5 21/27/5 6/7/5
f 4/4/5 22/28/5 2/2/5
f 8/14/5 23/29/5 4/4/5
f 6/7/5 24/30/5 8/14/5
f 1/1/4 25/31/4 2/2/4
f 3/3/4 26/32/4 1/1/4
f 4/4/4 27/33/4 3/3/4
f 2/2/4 28/34/4 4/4/4
f 5/6/6 29/35/6 6/8/6
f 1/1/6 30/36/6 5/6/6
f 2/2/6 31/37/6 1/1/6
f 6/8/6 32/38/6 2/2/6
f 34/40/2 36/42/2 33/39/2
f 38/44/1 40/46/1 37/43/1
f 42/48/3 44/50/3 41/47/3
f 46/52/5 48/54/5 45/51/5
f 50/56/4 52/58/4 49/55/4
f 54/60/6 56/62/6 53/59/6
f 27/33/5 50/56/5 26/32/5
f 24/30/6 47/53/6 23/29/6
f 31/37/5 54/60/5 30/36/5
f 28/34/6 51/57/6 27/33/6
f 32/38/3 55/61/3 31/37/3
f 10/16/1 33/39/1 9/15/1
f 14/20/3 37/43/3 13/19/3
f 9/15/3 36/42/3 12/18/3
f 18/24/6 41/47/6 17/23/6
f 13/19/2 40/46/2 16/22/2
f 22/28/1 45/51/1 21/27/1
f 11/17/4 34/40/4 10/16/4
f 17/23/2 44/50/2 20/26/2
f 26/32/1 49/55/1 25/31/1
f 15/21/5 38/44/5 14/20/5
f 21/27/4 48/54/4 24/30/4
f 30/36/4 53/59/4 29/35/4
f 12/18/6 35/41/6 11/17/6
f 81/87/2 83/89/2 84/90/2
f 86/92/1 88/94/1 85/91/1
f 90/96/3 92/98/3 89/95/3
f 93/99/5 95/101/5 96/102/5
f 98/104/4 100/106/4 97/103/4
f 102/108/6 104/110/6 101/107/6
f 61/67/7 88/94/7 64/70/7
f 78/84/8 101/107/8 77/83/8
f 69/75/9 96/102/9 72/78/9
f 63/69/8 86/92/8 62/68/8
f 77/83/10 104/110/10 80/86/10
f 71/77/11 94/100/11 70/76/11
f 64/70/10 87/93/10 63/69/10
f 79/85/12 102/108/12 78/84/12
f 58/64/9 81/87/9 57/63/9
f 72/78/13 95/101/13 71/77/13
f 66/72/14 89/95/14 65/71/14
f 80/86/7 103/109/7 79/85/7
f 57/63/15 84/90/15 60/66/15
f 74/80/16 97/103/16 73/79/16
f 65/71/17 92/98/17 68/74/17
f 59/65/13 82/88/13 58/64/13
f 73/79/18 100/106/18 76/82/18
f 67/73/16 90/96/16 66/72/16
f 60/66/11 83/89/11 59/65/11
f 75/81/14 98/104/14 74/80/14
f 68/74/18 91/97/18 67/73/18
f 62/68/12 85/91/12 61/67/12
f 76/82/17 99/105/17 75/81/17
f 70/76/15 93/99/15 69/75/15
f 20/26/1 44/50/1 43/49/1
f 29/35/2 53/59/2 56/62/2
f 23/29/3 47/53/3 46/52/3
f 16/22/4 40/46/4 39/45/4
f 25/31/2 49/55/2 52/58/2
f 19/25/5 43/49/5 42/48/5
f 5/5/2 10/16/2 9/15/2
f 7/9/2 11/17/2 10/16/2
f 3/3/2 12/18/2 11/17/2
f 1/1/2 9/15/2 12/18/2
f 3/3/1 14/20/1 13/19/1
f 7/10/1 15/21/1 14/20/1
f 8/12/1 16/22/1 15/21/1
f 4/4/1 13/19/1 16/22/1
f 7/11/3 18/24/3 17/23/3
f 5/6/3 19/25/3 18/24/3
f 6/8/3 20/26/3 19/25/3
f 8/13/3 17/23/3 20/26/3
f 2/2/5 22/28/5 21/27/5
f 4/4/5 23/29/5 22/28/5
f 8/14/5 24/30/5 23/29/5
f 6/7/5 21/27/5 24/30/5
f 1/1/4 26/32/4 25/31/4
f 3/3/4 27/33/4 26/32/4
f 4/4/4 28/34/4 27/33/4
f 2/2/4 25/31/4 28/34/4
f 5/6/6 30/36/6 29/35/6
f 1/1/6 31/37/6 30/36/6
f 2/2/6 32/38/6 31/37/6
f 6/8/6 29/35/6 32/38/6
f 34/40/2 35/41/2 36/42/2
f 38/44/1 39/45/1 40/46/1
f 42/48/3 43/49/3 44/50/3
f 46/52/5 47/53/5 48/54/5
f 50/56/4 51/57/4 52/58/4
f 54/60/6 55/61/6 56/62/6
f 27/33/5 51/57/5 50/56/5
f 24/30/6 48/54/6 47/53/6
f 31/37/5 55/61/5 54/60/5
f 28/34/6 52/58/6 51/57/6
f 32/38/3 56/62/3 55/61/3
f 10/16/1 34/40/1 33/39/1
f 14/20/3 38/44/3 37/43/3
f 9/15/3 33/39/3 36/42/3
f 18/24/6 42/48/6 41/47/6
f 13/19/2 37/43/2 40/46/2
f 22/28/1 46/52/1 45/51/1
f 11/17/4 35/41/4 34/40/4
f 17/23/2 41/47/2 44/50/2
f 26/32/1 50/56/1 49/55/1
f 15/21/5 39/45/5 38/44/5
f 21/27/4 45/51/4 48/54/4
f 30/36/4 54/60/4 53/59/4
f 12/18/6 36/42/6 35/41/6
f 81/87/2 82/88/2 83/89/2
f 86/92/1 87/93/1 88/94/1
f 90/96/3 91/97/3 92/98/3
f 93/99/5 94/100/5 95/101/5
f 98/104/4 99/105/4 100/106/4
f 102/108/6 103/109/6 104/110/6
f 61/67/7 85/91/7 88/94/7
f 78/84/8 102/108/8 101/107/8
f 69/75/9 93/99/9 96/102/9
f 63/69/8 87/93/8 86/92/8
f 77/83/10 101/107/10 104/110/10
f 71/77/11 95/101/11 94/100/11
f 64/70/10 88/94/10 87/93/10
f 79/85/12 103/109/12 102/108/12
f 58/64/9 82/88/9 81/87/9
f 72/78/13 96/102/13 95/101/13
f 66/72/14 90/96/14 89/95/14
f 80/86/7 104/110/7 103/109/7
f 57/63/15 81/87/15 84/90/15
f 74/80/16 98/104/16 97/103/16
f 65/71/17 89/95/17 92/98/17
f 59/65/13 83/89/13 82/88/13
f 73/79/18 97/103/18 100/106/18
f 67/73/16 91/97/16 90/96/16
f 60/66/11 84/90/11 83/89/11
f 75/81/14 99/105/14 98/104/14
f 68/74/18 92/98/18 91/97/18
f 62/68/12 86/92/12 85/91/12
f 76/82/17 100/106/17 99/105/17
f 70/76/15 94/100/15 93/99/15
