# Blender 3.2.2
# www.blender.org
o Cube.003
v 0.980000 1.000000 0.980000
v -0.980000 1.000000 -0.980000
v -0.980000 1.000000 0.980000
v 0.980000 -1.000000 -0.980000
v -0.980000 -1.000000 0.980000
v -0.980000 -1.000000 -0.980000
v 1.000000 0.980000 0.980000
v 1.000000 -0.980000 -0.980000
v 1.000000 0.980000 -0.980000
v -0.980000 -0.980000 1.000000
v 0.980000 0.980000 1.000000
v -0.980000 0.980000 1.000000
v -1.000000 0.980000 -0.980000
v -1.000000 -0.980000 0.980000
v -1.000000 0.980000 0.980000
v 0.980000 0.980000 -1.000000
v 0.980000 1.000000 -0.980000
v 0.980000 -0.980000 -1.000000
v 0.980000 -0.980000 1.000000
v 0.980000 -1.000000 0.980000
v 1.000000 -0.980000 0.980000
v -0.980000 0.980000 -1.000000
v -0.980000 -0.980000 -1.000000
v -1.000000 -0.980000 -0.980000
vn 0.0076 0.9999 0.0076
vn -0.0101 0.9999 -0.0051
vn -0.0100 0.9998 0.0199
vn 0.0076 -0.9999 -0.0076
vn -0.0101 -0.9999 0.0051
vn -0.0100 -0.9998 -0.0199
vn 0.9999 0.0076 0.0076
vn 0.9999 -0.0051 -0.0101
vn 0.9998 0.0199 -0.0100
vn -0.0076 -0.0076 0.9999
vn 0.0051 0.0101 0.9999
vn -0.0199 0.0100 0.9998
vn -0.9999 0.0076 -0.0076
vn -0.9999 -0.0051 0.0101
vn -0.9998 0.0199 0.0100
vn 0.0199 0.0100 -0.9998
vn 0.0100 0.9998 -0.0199
vn 0.0051 -0.0101 -0.9999
vn 0.0199 -0.0100 0.9998
vn 0.0100 -0.9998 0.0199
vn 0.9998 -0.0199 0.0100
vn -0.0051 0.0101 -0.9999
vn -0.0199 -0.0100 -0.9998
vn -0.9998 -0.0199 -0.0100
vt 0.627500 0.747500
vt 0.872500 0.502500
vt 0.625000 0.252500
vt 0.625000 0.247500
vt 0.872500 0.747500
vt 0.625000 0.002500
vt 0.375000 0.497500
vt 0.372500 0.502500
vt 0.375000 0.002500
vt 0.127500 0.747500
vt 0.127500 0.502500
vt 0.375000 0.247500
vt 0.375000 0.252500
vt 0.625000 0.747500
vt 0.622500 0.747500
vt 0.377500 0.500000
vt 0.377500 0.502500
vt 0.622500 0.500000
vt 0.622500 0.502500
vt 0.377500 0.997500
vt 0.377500 0.000000
vt 0.127500 0.750000
vt 0.622500 0.752500
vt 0.627500 0.750000
vt 0.622500 0.997500
vt 0.622500 0.000000
vt 0.872500 0.750000
vt 0.622500 0.250000
vt 0.622500 0.247500
vt 0.377500 0.002500
vt 0.622500 0.002500
vt 0.622500 0.497500
vt 0.627500 0.502500
vt 0.625000 0.497500
vt 0.377500 0.497500
vt 0.372500 0.750000
vt 0.377500 0.752500
vt 0.372500 0.747500
vt 0.375000 0.747500
vt 0.377500 0.747500
vt 0.622500 0.252500
vt 0.377500 0.252500
vt 0.377500 0.250000
vt 0.377500 0.247500
s 1
usemtl Default_OBJ.002
f 1/1/1 2/2/2 3/5/3
f 4/8/4 5/10/5 6/11/6
f 7/15/7 8/17/8 9/19/9
f 10/20/10 11/23/11 12/25/12
f 13/29/13 14/30/14 15/31/15
f 16/32/16 17/34/17 9/18/9
f 8/16/8 4/7/4 18/35/18
f 1/1/1 11/24/11 7/14/7
f 19/36/19 20/38/20 21/39/21
f 2/3/2 22/41/22 13/28/13
f 23/42/23 6/13/6 24/43/24
f 15/31/15 12/26/12 3/6/3
f 5/9/5 10/21/10 14/30/14
f 8/17/8 16/32/16 9/19/9
f 1/1/1 9/19/9 17/33/17
f 19/37/19 7/15/7 11/23/11
f 22/41/22 17/34/17 16/32/16
f 6/13/6 18/35/18 4/7/4
f 5/9/5 24/44/24 6/12/6
f 14/30/14 12/26/12 15/31/15
f 21/40/21 4/8/4 8/17/8
f 3/5/3 11/24/11 1/1/1
f 23/42/23 13/29/13 22/41/22
f 10/22/10 20/38/20 19/36/19
f 15/31/15 2/4/2 13/29/13
f 22/41/22 18/35/18 23/42/23
f 1/1/1 17/33/17 2/2/2
f 4/8/4 20/38/20 5/10/5
f 7/15/7 21/40/21 8/17/8
f 10/20/10 19/37/19 11/23/11
f 13/29/13 24/44/24 14/30/14
f 8/17/8 18/35/18 16/32/16
f 1/1/1 7/15/7 9/19/9
f 19/37/19 21/40/21 7/15/7
f 22/41/22 2/3/2 17/34/17
f 6/13/6 23/42/23 18/35/18
f 5/9/5 14/30/14 24/44/24
f 14/30/14 10/21/10 12/26/12
f 21/40/21 20/38/20 4/8/4
f 3/5/3 12/27/12 11/24/11
f 23/42/23 24/44/24 13/29/13
f 10/22/10 5/10/5 20/38/20
f 15/31/15 3/6/3 2/4/2
f 22/41/22 16/32/16 18/35/18
