# Blender 3.5.0
# www.blender.org
o Cube
v 0.980000 0.980000 -1.000000
v 0.980000 1.000000 -0.980000
v 1.000000 0.980000 -0.980000
v 1.000000 -0.980000 -0.980000
v 0.980000 -1.000000 -0.980000
v 0.980000 -0.980000 -1.000000
v 0.980000 1.000000 0.980000
v 0.980000 0.980000 1.000000
v 1.000000 0.980000 0.980000
v 0.980000 -0.980000 1.000000
v 0.980000 -1.000000 0.980000
v 1.000000 -0.980000 0.980000
v -0.980000 1.000000 -0.980000
v -0.980000 0.980000 -1.000000
v -1.000000 0.980000 -0.980000
v -0.980000 -0.980000 -1.000000
v -0.980000 -1.000000 -0.980000
v -1.000000 -0.980000 -0.980000
v -1.000000 0.980000 0.980000
v -0.980000 0.980000 1.000000
v -0.980000 1.000000 0.980000
v -0.980000 -1.000000 0.980000
v -0.980000 -0.980000 1.000000
v -1.000000 -0.980000 0.980000
vn -0.1460 0.9216 0.3595
vn -0.0064 1.0000 -0.0064
vn -0.0105 0.9999 0.0106
vn -0.1460 -0.9216 -0.3595
vn -0.0064 -1.0000 0.0064
vn -0.0105 -0.9999 -0.0106
vn 0.9216 0.3595 -0.1460
vn 1.0000 -0.0064 -0.0064
vn 0.9999 0.0106 -0.0105
vn -0.3595 0.1460 0.9216
vn 0.0064 0.0064 1.0000
vn -0.0106 0.0105 0.9999
vn -0.9216 0.3595 0.1460
vn -1.0000 -0.0064 0.0064
vn -0.9999 0.0106 0.0105
vn 0.0105 0.0105 -0.9999
vn 0.4888 0.5547 -0.6733
vn 0.0064 -0.0064 -1.0000
vn 0.6733 -0.4888 0.5547
vn 0.4888 -0.5547 0.6733
vn 0.5547 -0.6733 0.4888
vn -0.0064 0.0064 -1.0000
vn -0.0105 -0.0105 -0.9999
vn -0.5547 -0.6733 -0.4888
vt 0.622500 0.497500
vt 0.627500 0.502500
vt 0.625000 0.497500
vt 0.622500 0.500000
vt 0.622500 0.502500
vt 0.377500 0.500000
vt 0.377500 0.502500
vt 0.375000 0.497500
vt 0.372500 0.502500
vt 0.377500 0.497500
vt 0.627500 0.747500
vt 0.622500 0.752500
vt 0.627500 0.750000
vt 0.625000 0.747500
vt 0.622500 0.747500
vt 0.372500 0.750000
vt 0.377500 0.752500
vt 0.372500 0.747500
vt 0.375000 0.747500
vt 0.377500 0.747500
vt 0.872500 0.502500
vt 0.625000 0.252500
vt 0.625000 0.247500
vt 0.622500 0.252500
vt 0.622500 0.250000
vt 0.622500 0.247500
vt 0.377500 0.252500
vt 0.127500 0.502500
vt 0.375000 0.247500
vt 0.375000 0.252500
vt 0.377500 0.250000
vt 0.377500 0.247500
vt 0.622500 0.002500
vt 0.622500 0.997500
vt 0.622500 0.000000
vt 0.872500 0.750000
vt 0.872500 0.747500
vt 0.625000 0.002500
vt 0.375000 0.002500
vt 0.127500 0.747500
vt 0.377500 0.997500
vt 0.377500 0.000000
vt 0.127500 0.750000
vt 0.377500 0.002500
s 1
f 7/11/1 13/21/2 21/37/3
f 5/9/4 22/40/5 17/28/6
f 9/15/7 4/7/8 3/5/9
f 23/41/10 8/12/11 20/34/12
f 15/26/13 24/44/14 19/33/15
f 1/1/16 2/3/17 3/4/9
f 4/6/8 5/8/4 6/10/18
f 7/11/1 8/13/11 9/14/7
f 10/16/19 11/18/20 12/19/21
f 13/22/2 14/24/22 15/25/13
f 16/27/23 17/30/6 18/31/24
f 19/33/15 20/35/12 21/38/3
f 22/39/5 23/42/10 24/44/14
f 4/7/8 1/1/16 3/5/9
f 7/11/1 3/5/9 2/2/17
f 10/17/19 9/15/7 8/12/11
f 14/24/22 2/3/17 1/1/16
f 17/30/6 6/10/18 5/8/4
f 22/39/5 18/32/24 17/29/6
f 24/44/14 20/35/12 19/33/15
f 12/20/21 5/9/4 4/7/8
f 21/37/3 8/13/11 7/11/1
f 16/27/23 15/26/13 14/24/22
f 23/43/10 11/18/20 10/16/19
f 19/33/15 13/23/2 15/26/13
f 14/24/22 6/10/18 16/27/23
f 7/11/1 2/2/17 13/21/2
f 5/9/4 11/18/20 22/40/5
f 9/15/7 12/20/21 4/7/8
f 23/41/10 10/17/19 8/12/11
f 15/26/13 18/32/24 24/44/14
f 4/7/8 6/10/18 1/1/16
f 7/11/1 9/15/7 3/5/9
f 10/17/19 12/20/21 9/15/7
f 14/24/22 13/22/2 2/3/17
f 17/30/6 16/27/23 6/10/18
f 22/39/5 24/44/14 18/32/24
f 24/44/14 23/42/10 20/35/12
f 12/20/21 11/18/20 5/9/4
f 21/37/3 20/36/12 8/13/11
f 16/27/23 18/32/24 15/26/13
f 23/43/10 22/40/5 11/18/20
f 19/33/15 21/38/3 13/23/2
f 14/24/22 1/1/16 6/10/18
